<svg version="1.1" id="Layer_1" xmlns="http://www.w3.org/2000/svg" xmlns:xlink="http://www.w3.org/1999/xlink" x="0px" y="0px"
	 width="100%" viewBox="0 0 2884 2888" enable-background="new 0 0 2884 2888" xml:space="preserve">
<path fill="#5C74B5" opacity="1.000000" stroke="none" 
	d="
M2.000000,760.000000 
	C2.000000,506.666718 2.000000,254.333420 2.000000,2.000102 
	C963.333069,2.000068 1924.666138,2.000068 2885.999512,2.000034 
	C2885.999512,964.666260 2885.999512,1927.332520 2885.999756,2889.999023 
	C1924.667236,2889.999512 963.334473,2889.999512 2.000842,2889.999756 
	C2.000000,2180.333252 2.000000,1470.666626 2.000000,760.000000 
z"/>
<path fill="#AD3963" opacity="1.000000" stroke="none" 
	d="
M89.321632,1924.897217 
	C54.295044,1825.023926 30.847881,1723.247437 18.502344,1618.953125 
	C10.776196,1553.683350 7.433895,1488.134399 8.718087,1422.409546 
	C10.920859,1309.672119 25.514229,1198.567993 53.779575,1089.350830 
	C106.091446,887.217957 197.494080,704.520569 329.664246,542.979919 
	C527.422546,301.276306 777.413452,139.325912 1079.184082,57.982910 
	C1153.006592,38.083851 1228.111084,24.971451 1304.227539,17.587330 
	C1357.017090,12.466188 1409.931152,9.646100 1462.937256,10.544171 
	C1763.945435,15.644110 2038.034302,104.018097 2283.157471,279.128021 
	C2479.800781,419.605072 2631.177979,599.178162 2738.135254,815.914673 
	C2799.456055,940.174683 2841.065430,1070.876465 2864.353516,1207.504395 
	C2880.768555,1303.810913 2886.893799,1400.808105 2883.544922,1498.286255 
	C2876.488037,1703.699219 2827.866211,1898.924683 2736.989502,2083.421631 
	C2661.398682,2236.885742 2561.721924,2372.851562 2437.481445,2490.359375 
	C2239.724609,2677.399658 2007.661499,2799.779297 1741.122314,2856.130615 
	C1666.976685,2871.806152 1592.017700,2881.097168 1516.276001,2884.588379 
	C1452.918457,2887.508789 1389.638428,2886.987793 1326.485229,2881.551758 
	C1076.877930,2860.066650 848.016235,2779.523682 640.287659,2639.319580 
	C560.735413,2585.626709 487.347290,2524.438232 420.275146,2455.826904 
	C271.226959,2303.358154 160.748474,2126.732178 89.321632,1924.897217 
z"/>
<path fill="#5D74B4" opacity="1.000000" stroke="none" 
	d="
M940.096558,115.963005 
	C1039.039551,78.367859 1140.188354,52.545464 1244.190674,37.585400 
	C1330.229126,25.209311 1416.697021,20.924116 1503.441284,24.426582 
	C1701.573242,32.426540 1890.163086,79.255394 2068.624756,165.995804 
	C2223.444824,241.245407 2360.493408,341.090668 2478.777344,466.093842 
	C2667.447998,665.481934 2789.626709,899.748718 2844.188232,1168.987305 
	C2856.647217,1230.467407 2864.355713,1292.566284 2868.617188,1355.166138 
	C2873.244873,1423.150391 2873.066406,1491.095703 2867.497803,1558.935669 
	C2843.143555,1855.635986 2738.149658,2120.555420 2549.272217,2350.678711 
	C2353.102539,2589.686768 2104.398438,2748.623291 1805.302246,2828.003906 
	C1727.504395,2848.651367 1648.358521,2861.753906 1568.126343,2868.468750 
	C1517.259766,2872.725830 1466.329224,2874.852051 1415.317627,2873.563965 
	C1233.393677,2868.969482 1058.238647,2832.381104 890.601624,2761.149658 
	C718.851746,2688.170166 566.954895,2585.563477 435.687897,2452.964600 
	C256.373596,2271.830811 133.640839,2057.995850 68.027641,1811.569336 
	C48.867840,1739.609985 36.023335,1666.481079 28.382406,1592.436401 
	C21.321930,1524.016602 19.288073,1455.348755 22.559008,1386.717896 
	C36.140331,1101.753540 125.918800,843.154602 292.892365,611.599670 
	C337.637665,549.547913 387.318329,491.651245 441.658966,437.847290 
	C585.051392,295.870941 750.811890,188.377884 940.096558,115.963005 
z"/>
<path fill="#B1365F" opacity="1.000000" stroke="none" 
	d="
M2368.268555,481.712219 
	C2484.735840,593.362061 2578.281006,720.917175 2648.540527,865.402283 
	C2704.885254,981.271912 2743.406738,1102.842285 2764.381104,1229.999023 
	C2778.912598,1318.096802 2785.039551,1406.798096 2781.410889,1495.936890 
	C2769.570557,1786.801270 2674.588623,2047.556274 2494.472168,2276.431152 
	C2364.002930,2442.219238 2202.390625,2569.502686 2011.403198,2659.188721 
	C1900.934082,2711.063721 1785.315918,2746.556152 1664.855469,2766.393066 
	C1577.746948,2780.737793 1490.069092,2786.678711 1401.915527,2783.536377 
	C1187.296631,2775.885986 985.670166,2720.687988 797.767578,2616.312744 
	C681.239807,2551.583984 576.507751,2471.324951 484.428711,2374.982422 
	C300.851624,2182.905762 183.487869,1956.426147 133.647644,1695.242310 
	C123.330490,1641.176025 116.939407,1586.624634 113.428787,1531.676514 
	C110.172447,1480.708374 109.720619,1429.743774 112.479630,1378.800903 
	C121.851898,1205.749268 162.429840,1040.394775 235.961014,883.300903 
	C309.636505,725.898682 410.046661,587.803467 537.574036,469.864197 
	C723.410400,297.999939 940.644470,187.029999 1189.089233,137.661530 
	C1246.684570,126.216766 1304.835693,119.132362 1363.460938,115.435867 
	C1413.762451,112.264198 1464.066650,111.588982 1514.337646,114.430168 
	C1805.743774,130.899704 2065.089111,230.736237 2292.026123,414.434448 
	C2318.206787,435.626831 2343.260254,458.109955 2368.268555,481.712219 
z"/>
<path fill="#862144" opacity="1.000000" stroke="none" 
	d="
M464.865356,1192.719849 
	C469.238434,1192.045654 472.519135,1190.495850 475.781647,1188.747803 
	C524.379700,1162.709839 576.046143,1145.714722 630.227234,1135.880493 
	C666.722168,1129.256470 703.532349,1125.686279 740.520447,1126.347900 
	C817.903076,1127.731812 892.757385,1141.801392 963.801086,1173.729736 
	C994.031982,1187.316162 1022.505432,1203.750122 1049.175293,1223.373657 
	C1058.472168,1230.214233 1058.482300,1230.223389 1066.356934,1222.479126 
	C1119.161377,1170.549316 1175.522827,1122.766724 1234.238892,1077.669067 
	C1277.351807,1044.555420 1321.881470,1013.494324 1367.393555,983.811584 
	C1370.520630,981.772156 1373.656128,977.421082 1377.837891,980.056458 
	C1381.265259,982.216370 1379.845215,986.804016 1379.847290,990.348755 
	C1379.906372,1093.671021 1379.897095,1196.993164 1379.897339,1300.315430 
	C1379.897827,1475.630005 1379.898315,1650.944458 1379.895874,1826.259033 
	C1379.895630,1843.896362 1379.886353,1843.901245 1362.499756,1843.907471 
	C1349.167847,1843.912231 1335.829712,1843.654663 1322.506714,1843.998047 
	C1315.273193,1844.184326 1310.889038,1841.945312 1308.117920,1834.730469 
	C1300.367554,1814.551392 1287.004395,1798.639526 1269.003906,1786.667603 
	C1233.406616,1762.992065 1185.095581,1763.709595 1150.568115,1789.142090 
	C1122.851807,1809.557251 1109.020508,1837.050415 1107.531616,1871.911133 
	C1105.449097,1920.677368 1142.502075,1970.098999 1197.574219,1977.334839 
	C1240.451050,1982.968140 1283.284058,1961.759155 1303.614380,1922.810669 
	C1305.463745,1919.268066 1307.432617,1915.727295 1308.734375,1911.973633 
	C1310.635376,1906.491089 1314.025146,1903.983887 1319.896240,1904.039673 
	C1336.892700,1904.201294 1353.893433,1903.953125 1370.888672,1904.168335 
	C1378.243408,1904.261597 1379.546753,1905.713867 1379.797852,1913.093994 
	C1380.058350,1920.751587 1379.755615,1928.427368 1379.964111,1936.088013 
	C1380.195679,1944.600952 1381.442627,1945.956177 1389.962280,1946.068726 
	C1404.958130,1946.267090 1419.958252,1946.147461 1434.956665,1946.148926 
	C1461.953735,1946.151367 1488.951050,1946.203125 1515.947754,1946.114136 
	C1527.088623,1946.077393 1527.880615,1945.190430 1528.035522,1934.144775 
	C1528.138306,1926.813599 1527.884155,1919.470825 1528.205322,1912.151367 
	C1528.480347,1905.887085 1529.843872,1904.332031 1536.010010,1904.223389 
	C1551.336670,1903.953125 1566.671875,1904.222534 1582.001343,1904.060181 
	C1587.770752,1903.999146 1590.226074,1907.392944 1592.000732,1912.094971 
	C1595.796265,1922.151245 1601.076050,1931.338989 1608.068237,1939.557739 
	C1636.798950,1973.329346 1673.425903,1985.600220 1715.735840,1974.491211 
	C1758.604980,1963.235352 1784.239014,1933.973267 1792.080566,1889.868896 
	C1800.984253,1839.791626 1769.415527,1781.582031 1706.245972,1771.023682 
	C1655.944946,1762.616333 1611.365967,1789.584717 1593.234497,1832.757935 
	C1589.652710,1841.286621 1585.397583,1844.625000 1576.315674,1844.077637 
	C1564.692505,1843.377319 1552.994873,1843.951416 1541.329712,1843.894653 
	C1528.492554,1843.832275 1528.148804,1843.435791 1528.060059,1830.137451 
	C1528.051147,1828.804199 1528.057373,1827.471069 1528.057373,1826.137817 
	C1528.057251,1548.500977 1528.056641,1270.864136 1528.063721,993.227295 
	C1528.063843,989.562317 1527.891602,985.868774 1528.276367,982.239075 
	C1528.836426,976.954834 1530.928101,975.802612 1535.626587,978.616577 
	C1546.487915,985.121521 1557.239380,991.822571 1567.861572,998.712158 
	C1624.663574,1035.554565 1679.510986,1075.132324 1732.083984,1117.779053 
	C1760.530518,1140.854492 1788.689453,1164.323975 1815.065918,1189.817871 
	C1821.480347,1196.017578 1822.168091,1196.104736 1829.756592,1191.881592 
	C1888.189575,1159.361938 1950.953491,1140.398682 2017.058838,1131.754028 
	C2045.494019,1128.035400 2074.051758,1125.476440 2102.696533,1126.299194 
	C2157.164307,1127.863281 2210.797363,1135.106689 2263.123047,1151.202271 
	C2298.346191,1162.037231 2331.779541,1176.755493 2364.095215,1194.246826 
	C2367.311768,1195.987793 2370.354492,1198.132446 2375.010010,1197.944824 
	C2384.696289,1200.120117 2392.214111,1204.379883 2397.439453,1213.110107 
	C2403.492676,1221.328735 2412.086426,1225.451172 2419.279541,1231.247925 
	C2440.817139,1248.604126 2460.370605,1267.891113 2478.088135,1289.089966 
	C2480.438477,1291.902100 2482.781250,1294.700928 2483.927246,1299.015869 
	C2479.590088,1304.261475 2473.758057,1304.850342 2467.826904,1304.853027 
	C2400.011475,1304.883423 2332.195312,1305.364136 2263.394775,1304.610107 
	C2242.209717,1305.131592 2222.010498,1305.188965 2200.831787,1304.625732 
	C2152.034180,1305.171875 2104.215820,1305.226929 2055.433105,1304.595215 
	C2034.272095,1305.116577 2014.075317,1305.233276 1993.000488,1304.538330 
	C1906.818726,1305.564331 1821.510620,1304.621582 1736.205811,1305.048340 
	C1730.769043,1305.075562 1723.050537,1302.291260 1720.431885,1307.734741 
	C1717.492065,1313.845825 1724.650635,1318.196655 1728.540649,1322.365845 
	C1773.933960,1371.016479 1828.705200,1405.685181 1890.433105,1429.629028 
	C1935.697266,1447.186890 1982.514526,1458.551514 2030.888916,1463.544922 
	C2037.118896,1464.187866 2044.498779,1463.098511 2049.458252,1470.010254 
	C2051.170166,1478.555054 2056.193115,1484.606567 2059.891846,1491.247437 
	C2092.981934,1550.661865 2118.680664,1613.082275 2135.550293,1678.965088 
	C2145.227051,1716.757935 2151.430176,1755.171753 2154.469971,1794.179321 
	C2156.755615,1823.513306 2156.917969,1852.848755 2155.514404,1882.065308 
	C2153.095215,1932.421265 2144.800781,1982.035889 2131.308350,2030.692383 
	C2107.338379,2117.133545 2068.175537,2196.080566 2014.187378,2267.682617 
	C1989.250366,2300.755371 1961.727417,2331.598633 1931.138672,2359.473145 
	C1828.280151,2453.204834 1708.603638,2512.893555 1571.120361,2536.515869 
	C1520.623901,2545.192383 1469.780029,2548.139160 1418.807373,2545.584717 
	C1345.823853,2541.927490 1274.866333,2527.358887 1206.361450,2501.407471 
	C1140.103027,2476.307373 1079.009888,2442.073730 1023.012329,2398.707520 
	C988.671143,2372.112549 957.419556,2342.272461 928.466125,2309.886963 
	C886.207520,2262.618408 851.026062,2210.583252 823.150452,2153.748291 
	C789.735229,2085.618652 767.994995,2013.863037 757.593018,1938.566528 
	C751.498962,1894.453979 750.294434,1850.177979 752.494751,1805.948120 
	C754.950806,1756.577515 764.394714,1708.169434 778.685486,1660.738403 
	C799.396790,1591.998169 830.090454,1527.854492 867.050964,1466.533936 
	C868.767334,1463.686279 870.296631,1460.725952 872.115112,1457.158447 
	C872.369446,1450.717285 876.796387,1449.729736 881.035034,1448.622559 
	C912.674377,1440.357788 943.330750,1429.374023 972.864624,1415.321045 
	C1022.674255,1391.620117 1067.022461,1360.396606 1104.170532,1319.386597 
	C1107.135986,1316.112915 1112.381226,1312.477539 1110.054199,1307.703003 
	C1107.729004,1302.931885 1101.638916,1305.032471 1097.183350,1305.026123 
	C1023.633057,1304.921875 950.082520,1304.945435 876.532043,1304.963867 
	C868.212036,1304.965942 859.896729,1304.914673 850.717773,1304.422119 
	C830.403137,1305.353027 810.958435,1305.094727 790.550171,1304.590088 
	C741.123291,1305.225952 692.659241,1305.183350 643.215942,1304.614990 
	C622.039307,1305.127686 601.841797,1305.199463 580.657837,1304.611572 
	C507.172302,1305.371094 434.671600,1304.873291 362.171478,1304.864624 
	C356.918488,1304.864014 351.783020,1304.273682 346.614197,1300.386230 
	C347.218048,1291.615356 353.466400,1286.618286 358.364349,1280.962646 
	C379.769562,1256.245972 404.026184,1234.643433 430.935089,1216.041016 
	C433.939392,1213.963989 437.087036,1212.020386 438.933990,1207.742065 
	C445.879639,1199.354858 454.125946,1194.530640 464.865356,1192.719849 
z"/>
<path fill="#E0AE4E" opacity="1.000000" stroke="none" 
	d="
M851.609863,1300.601807 
	C856.498779,1299.952026 860.823853,1299.696655 865.149109,1299.695435 
	C947.437805,1299.671753 1029.726440,1299.665894 1112.015137,1299.715454 
	C1115.892456,1299.717773 1119.904541,1298.961548 1124.235962,1300.835327 
	C1123.179443,1305.076294 1120.173950,1307.802368 1117.742432,1310.777222 
	C1085.031982,1350.796753 1045.103882,1382.007690 1000.052063,1406.921509 
	C962.531616,1427.670654 922.804443,1442.844360 881.380005,1453.705078 
	C878.805786,1454.379883 876.263306,1455.175903 873.011719,1456.207275 
	C854.292908,1459.561523 836.496277,1463.816040 818.338928,1466.231445 
	C777.314941,1471.688599 736.247925,1473.270264 694.895264,1470.489990 
	C634.951172,1466.459473 577.117981,1453.685181 521.439270,1431.161255 
	C492.662354,1419.520264 465.400452,1404.961304 438.665710,1387.919678 
	C428.150116,1387.005737 420.123627,1383.568726 416.304565,1372.740234 
	C401.868225,1359.725342 387.061462,1348.087891 374.125122,1334.368652 
	C364.168762,1323.809692 354.048950,1313.388672 345.993774,1300.433105 
	C423.329895,1299.767578 500.780579,1299.799316 579.169800,1299.944092 
	C584.708984,1303.477417 584.605042,1308.535645 585.062927,1313.550171 
	C590.667603,1374.921997 632.725098,1422.099121 691.693115,1433.667236 
	C765.119324,1448.071655 840.919922,1395.631470 847.028687,1313.935181 
	C847.372070,1309.342407 846.737183,1304.458008 851.609863,1300.601807 
z"/>
<path fill="#E0AE4E" opacity="1.000000" stroke="none" 
	d="
M2050.485596,1470.675781 
	C2024.860474,1467.689575 2000.030151,1465.167725 1975.576294,1459.960815 
	C1895.145508,1442.834961 1821.618408,1411.078613 1758.306519,1357.645142 
	C1741.471802,1343.436890 1726.073853,1327.784912 1712.208862,1310.654663 
	C1709.939941,1307.851318 1707.158813,1305.349121 1705.886841,1301.114014 
	C1709.372925,1298.640381 1713.434814,1299.739258 1717.148071,1299.734985 
	C1785.070190,1299.657715 1852.992310,1299.669434 1920.914551,1299.683350 
	C1943.554810,1299.687988 1966.194946,1299.751465 1989.817139,1299.901855 
	C1995.568604,1305.349243 1996.056519,1312.141357 1996.759399,1318.694580 
	C2003.033325,1377.182495 2045.078491,1424.018066 2102.583984,1433.600708 
	C2182.754639,1446.960449 2245.577881,1394.720459 2256.388672,1324.519287 
	C2257.051025,1320.217773 2256.984131,1315.887939 2257.154541,1311.564941 
	C2257.313965,1307.531494 2257.468506,1303.489014 2261.989258,1300.512695 
	C2267.304688,1299.977905 2271.955566,1299.699463 2276.606445,1299.697510 
	C2345.142090,1299.669678 2413.677734,1299.678589 2483.160889,1299.679688 
	C2482.816650,1305.129150 2478.658203,1308.707031 2475.343994,1312.768921 
	C2456.319336,1336.084839 2434.109131,1356.064331 2409.916748,1374.897949 
	C2406.887451,1384.213745 2398.698975,1390.291748 2387.808350,1390.951172 
	C2363.517090,1404.812866 2339.705811,1418.132935 2314.442627,1428.743652 
	C2265.243408,1449.408081 2214.090332,1462.286987 2161.105713,1468.244995 
	C2124.580322,1472.352295 2088.010254,1473.028809 2050.485596,1470.675781 
z"/>
<path fill="#CA4645" opacity="1.000000" stroke="none" 
	d="
M1760.304199,1895.806274 
	C1754.308838,1912.693115 1744.860107,1925.998413 1730.519409,1935.652466 
	C1701.341187,1955.294922 1661.041382,1950.272461 1638.431396,1927.924316 
	C1623.028687,1912.699951 1614.282349,1894.780640 1614.566406,1873.777344 
	C1614.994263,1842.137451 1633.207031,1813.276367 1665.379761,1803.381470 
	C1713.705200,1788.518921 1758.763062,1818.891968 1763.734497,1869.400879 
	C1764.593628,1878.128174 1762.312622,1886.578613 1760.304199,1895.806274 
z"/>
<path fill="#CA4645" opacity="1.000000" stroke="none" 
	d="
M1237.462280,1804.177612 
	C1268.778442,1816.196411 1286.099243,1843.636841 1285.927856,1874.978760 
	C1285.643555,1926.989868 1231.273682,1962.751831 1183.349609,1942.533691 
	C1161.932739,1933.498413 1146.654297,1918.159668 1140.382202,1895.626221 
	C1125.223511,1841.165649 1168.060425,1798.286499 1210.311646,1799.837646 
	C1219.347168,1800.169312 1228.263916,1800.288696 1237.462280,1804.177612 
z"/>
<path fill="#E1AE4E" opacity="1.000000" stroke="none" 
	d="
M1468.668701,523.326294 
	C1484.244385,538.904419 1499.346802,553.954102 1514.382202,569.070312 
	C1521.974976,576.703979 1522.002808,576.840698 1514.822266,584.059387 
	C1496.732056,602.245483 1478.592529,620.382996 1460.402344,638.469116 
	C1454.110229,644.725281 1453.908569,644.737366 1447.770874,638.636658 
	C1429.341675,620.318604 1410.962280,601.949890 1392.651855,583.513184 
	C1386.056763,576.872681 1386.051514,576.467285 1392.525513,569.948914 
	C1410.836304,551.512451 1429.210693,533.138672 1447.651855,514.832703 
	C1453.791870,508.737701 1453.934814,508.849579 1460.383179,515.063171 
	C1463.021484,517.605469 1465.575317,520.235352 1468.668701,523.326294 
z"/>
<path fill="#5D73B4" opacity="1.000000" stroke="none" 
	d="
M1468.352295,242.350723 
	C1464.553589,246.130341 1461.164795,249.325287 1457.982910,252.714478 
	C1455.003174,255.888245 1452.488159,255.432205 1449.603394,252.514069 
	C1437.223389,239.991547 1424.786133,227.524689 1412.272339,215.135910 
	C1408.838135,211.735809 1409.477905,208.948029 1412.610596,205.841431 
	C1424.878662,193.676025 1437.116699,181.479279 1449.251343,169.181152 
	C1452.488281,165.900375 1455.151489,165.745148 1458.459106,169.101151 
	C1470.586914,181.405991 1482.794189,193.634521 1495.109863,205.751160 
	C1498.803345,209.384979 1498.501953,212.312515 1494.945801,215.787811 
	C1486.154297,224.379486 1477.538696,233.151352 1468.352295,242.350723 
z"/>
<path fill="#29141A" opacity="1.000000" stroke="none" 
	d="
M464.931396,1192.147217 
	C458.536987,1199.682251 450.420410,1204.989868 439.886292,1207.175293 
	C405.540710,1183.827637 371.843231,1160.628906 338.149902,1137.424072 
	C335.684814,1135.726318 333.260864,1133.968872 330.797394,1132.268677 
	C328.101532,1130.408203 327.688782,1128.211060 329.585327,1125.499634 
	C332.825592,1120.867188 336.028839,1116.208130 339.195343,1111.525146 
	C341.088440,1108.725464 343.269806,1108.531006 345.924377,1110.440063 
	C348.353760,1112.187256 350.875916,1113.804688 353.342621,1115.500610 
	C390.343689,1140.939819 427.342285,1166.382690 464.931396,1192.147217 
z"/>
<path fill="#29141A" opacity="1.000000" stroke="none" 
	d="
M2398.126465,1213.172607 
	C2389.333984,1210.724121 2381.764648,1206.412476 2375.903320,1198.626953 
	C2403.745605,1164.589233 2431.734131,1131.237183 2459.716797,1097.880127 
	C2467.630371,1088.446655 2466.475586,1089.179688 2474.842285,1096.272705 
	C2489.173828,1108.422241 2488.545898,1104.737427 2477.127197,1118.500977 
	C2451.024414,1149.964478 2424.711670,1181.253784 2398.126465,1213.172607 
z"/>
<path fill="#CA4645" opacity="1.000000" stroke="none" 
	d="
M1487.293457,1177.546509 
	C1489.093140,1190.798340 1487.603271,1202.333618 1477.669556,1211.294434 
	C1466.832764,1221.070068 1454.480225,1224.340088 1440.870483,1218.219116 
	C1427.734619,1212.311035 1419.908325,1202.397095 1419.899414,1187.203857 
	C1419.889526,1170.129150 1429.214478,1156.797363 1443.768066,1151.959961 
	C1461.668335,1146.010132 1483.259033,1158.403076 1487.293457,1177.546509 
z"/>
<path fill="#CA4645" opacity="1.000000" stroke="none" 
	d="
M1445.809814,971.152954 
	C1463.172363,967.531006 1475.084961,974.705444 1483.780518,988.026733 
	C1490.848755,998.855164 1489.538940,1015.673706 1481.526367,1026.623291 
	C1473.015503,1038.253906 1457.882690,1043.003906 1443.159790,1038.666260 
	C1429.382080,1034.607056 1421.012573,1023.273193 1419.927490,1008.344360 
	C1418.738647,991.987122 1427.269531,975.555542 1445.809814,971.152954 
z"/>
<path fill="#CA4645" opacity="1.000000" stroke="none" 
	d="
M1467.317383,1333.837769 
	C1492.614868,1344.733765 1494.267212,1378.963867 1475.219971,1393.924438 
	C1465.529297,1401.535889 1455.043213,1404.143311 1443.517334,1399.975098 
	C1431.529419,1395.639893 1423.176880,1387.127319 1420.509277,1374.496460 
	C1416.789551,1356.883667 1424.394775,1341.128052 1439.255249,1334.490479 
	C1448.133179,1330.525146 1457.377686,1331.184692 1467.317383,1333.837769 
z"/>
<path fill="#271419" opacity="1.000000" stroke="none" 
	d="
M415.652130,1372.574219 
	C423.129669,1376.907349 430.200958,1381.765381 437.638733,1387.157715 
	C409.805359,1415.868652 381.606415,1444.046509 353.403625,1472.220337 
	C351.523590,1474.098511 349.563904,1475.899414 347.732086,1477.822754 
	C345.089966,1480.596924 342.879242,1480.019409 340.063599,1477.715088 
	C323.796906,1464.402344 323.716644,1464.260864 338.270874,1449.752441 
	C363.915833,1424.187988 389.586151,1398.648926 415.652130,1372.574219 
z"/>
<path fill="#281419" opacity="1.000000" stroke="none" 
	d="
M2387.636475,1391.447510 
	C2394.114746,1385.920166 2401.172363,1380.906982 2408.867676,1375.657715 
	C2434.178955,1400.125122 2458.852539,1424.828003 2483.524414,1449.532959 
	C2485.169189,1451.179932 2486.738281,1452.907715 2488.448486,1454.482788 
	C2491.353271,1457.158081 2490.558594,1459.306519 2488.208740,1462.066528 
	C2474.460938,1478.212402 2474.521973,1478.264526 2459.461914,1463.205322 
	C2435.713135,1439.457397 2411.964600,1415.709473 2387.636475,1391.447510 
z"/>
<path fill="#D16C54" opacity="1.000000" stroke="none" 
	d="
M1691.172852,213.464935 
	C1675.153809,210.449921 1665.629517,192.624664 1673.393188,177.456207 
	C1678.932373,166.634140 1690.076294,161.542252 1702.800903,164.398560 
	C1713.327026,166.761414 1721.974609,178.471130 1721.484131,189.697571 
	C1720.977905,201.285843 1712.341797,211.369492 1700.880615,213.389221 
	C1697.986206,213.899292 1694.942383,213.560684 1691.172852,213.464935 
z"/>
<path fill="#D16C54" opacity="1.000000" stroke="none" 
	d="
M1624.817139,341.297852 
	C1615.316406,330.011444 1613.694702,320.000488 1619.228760,309.756104 
	C1625.597412,297.966217 1639.434937,293.294434 1651.741577,299.086243 
	C1665.878052,305.739166 1668.930786,318.803192 1664.513916,331.775635 
	C1660.422607,343.792206 1645.487061,350.225128 1633.281006,345.892822 
	C1630.509155,344.909058 1628.003418,343.176086 1624.817139,341.297852 
z"/>
<path fill="#D16C54" opacity="1.000000" stroke="none" 
	d="
M1457.143066,385.448792 
	C1447.595581,385.884216 1439.939209,383.484558 1434.349854,376.331482 
	C1424.615845,363.874176 1427.310425,347.670044 1440.481934,339.049316 
	C1452.788452,330.994568 1469.224854,335.447174 1476.209717,348.727997 
	C1483.161743,361.946075 1477.628296,377.340729 1463.621216,383.559235 
	C1461.817261,384.360168 1459.831055,384.751007 1457.143066,385.448792 
z"/>
<path fill="#D16C54" opacity="1.000000" stroke="none" 
	d="
M1230.395508,210.387726 
	C1215.591919,222.842133 1197.605957,220.097488 1189.396851,204.758286 
	C1184.071289,194.807159 1186.239868,182.409439 1194.644531,174.755783 
	C1203.011230,167.136719 1215.435669,165.922516 1225.133423,171.776215 
	C1234.507568,177.434601 1239.300171,189.903000 1236.116577,200.311035 
	C1235.034424,203.848862 1233.401489,207.076599 1230.395508,210.387726 
z"/>
<path fill="#D16C54" opacity="1.000000" stroke="none" 
	d="
M1571.178955,448.306702 
	C1589.148315,458.680328 1592.422852,477.406921 1579.149048,490.062378 
	C1570.595581,498.217468 1558.687622,499.468689 1548.850098,493.246002 
	C1539.407593,487.273132 1534.788086,475.762817 1537.762329,465.618683 
	C1541.260376,453.688263 1551.088501,446.021729 1562.664917,446.465118 
	C1565.279541,446.565277 1567.863037,447.483704 1571.178955,448.306702 
z"/>
<path fill="#D16C54" opacity="1.000000" stroke="none" 
	d="
M1330.474365,485.106445 
	C1328.962036,482.066528 1327.565552,479.729431 1326.889771,477.199768 
	C1323.619263,464.958862 1329.110107,452.945160 1340.029663,448.021240 
	C1351.072021,443.041901 1365.048340,446.403351 1371.499512,455.590179 
	C1378.633911,465.749969 1377.419800,479.749634 1368.650024,488.444244 
	C1359.570190,497.446228 1346.516113,498.328339 1335.956421,490.531311 
	C1334.104126,489.163666 1332.591675,487.335846 1330.474365,485.106445 
z"/>
<path fill="#D16C54" opacity="1.000000" stroke="none" 
	d="
M1247.705322,347.263672 
	C1232.144653,339.302887 1226.558960,326.723175 1232.152466,313.749756 
	C1237.192871,302.059143 1249.462280,295.836548 1261.428467,298.901947 
	C1273.794434,302.069733 1281.442749,313.609100 1279.956787,326.856323 
	C1278.533325,339.546234 1268.911377,347.892242 1255.396484,348.045044 
	C1253.093018,348.071075 1250.784790,347.687134 1247.705322,347.263672 
z"/>
<path fill="#E0AE4F" opacity="1.000000" stroke="none" 
	d="
M1399.867920,2538.070801 
	C1331.156250,2532.020264 1266.233521,2516.064697 1206.598511,2482.127930 
	C1172.010010,2462.444580 1141.860596,2437.571045 1118.858398,2404.714111 
	C1099.130859,2376.534424 1087.405640,2345.445801 1084.895508,2310.971680 
	C1084.240356,2301.972900 1086.600830,2293.880615 1090.327026,2285.921143 
	C1127.633667,2206.232666 1187.549561,2151.064941 1269.979248,2120.396973 
	C1309.910645,2105.540283 1351.335205,2097.476807 1393.697754,2093.866211 
	C1435.973145,2090.263184 1478.267212,2090.344727 1520.490845,2094.223633 
	C1573.948975,2099.134277 1625.782715,2110.599121 1674.309814,2134.512939 
	C1742.183472,2167.960205 1789.062134,2220.999756 1819.286743,2289.650635 
	C1824.711792,2301.972900 1822.944580,2314.554932 1820.931030,2327.029541 
	C1813.802002,2371.193359 1791.911133,2407.483887 1760.216919,2438.220215 
	C1724.858765,2472.510010 1682.541138,2495.299561 1636.463135,2511.507568 
	C1593.784912,2526.519287 1549.712769,2534.870850 1504.636963,2538.316406 
	C1470.004028,2540.962891 1435.402588,2540.980225 1399.867920,2538.070801 
z"/>
<path fill="#443428" opacity="1.000000" stroke="none" 
	d="
M2261.675781,1300.050049 
	C2263.683350,1347.064697 2245.864258,1385.394897 2208.588135,1413.737061 
	C2127.341309,1475.511353 2008.543945,1427.474121 1992.485718,1326.656738 
	C1991.179565,1318.455811 1990.375977,1310.125244 1990.776611,1300.887939 
	C2011.156128,1299.993530 2031.512939,1299.971680 2052.787598,1300.001465 
	C2057.847412,1302.662231 2058.467529,1306.778198 2059.011963,1311.236816 
	C2062.631348,1340.880859 2078.496826,1361.202881 2106.948486,1370.181152 
	C2135.391357,1379.156372 2162.675537,1369.670898 2181.609619,1345.818359 
	C2189.478027,1335.906006 2193.438477,1324.349731 2194.967285,1311.914185 
	C2195.455566,1307.941284 2195.402588,1303.862915 2199.580566,1300.602539 
	C2220.318848,1300.051025 2240.508545,1300.011719 2261.675781,1300.050049 
z"/>
<path fill="#443428" opacity="1.000000" stroke="none" 
	d="
M851.227173,1300.024902 
	C852.666565,1351.853027 831.747070,1392.704712 788.061157,1420.433716 
	C705.544373,1472.810547 595.205688,1421.335938 581.602234,1324.780884 
	C580.527710,1317.154175 580.050354,1309.547607 580.118713,1300.966553 
	C600.287476,1300.037109 620.466675,1300.017212 641.616699,1300.085938 
	C646.840088,1304.383179 648.179260,1309.713257 648.980591,1315.454712 
	C653.398193,1347.106689 680.208740,1371.912598 710.972656,1373.009033 
	C746.790100,1374.285645 775.810974,1352.759521 783.067139,1319.913818 
	C784.464844,1313.587280 783.634155,1306.460693 789.215088,1300.656982 
	C809.907959,1300.061401 830.094360,1300.010986 851.227173,1300.024902 
z"/>
<path fill="#5C74B4" opacity="1.000000" stroke="none" 
	d="
M788.807495,1300.003906 
	C790.345398,1329.776733 778.886597,1353.268555 753.096008,1368.478149 
	C707.803406,1395.188599 650.546509,1366.937866 643.512756,1314.745361 
	C642.938232,1310.482422 642.886353,1306.149048 642.589600,1301.011475 
	C649.547668,1300.011597 656.507874,1299.705566 663.467896,1299.709351 
	C704.943054,1299.731934 746.418274,1299.825928 788.807495,1300.003906 
z"/>
<path fill="#5C74B4" opacity="1.000000" stroke="none" 
	d="
M2199.187744,1299.969971 
	C2201.223389,1321.771851 2194.675781,1340.680176 2179.443359,1356.316650 
	C2158.531494,1377.783569 2127.106934,1384.880005 2099.573975,1373.177246 
	C2070.635986,1360.877686 2055.090088,1338.532349 2053.606689,1306.834351 
	C2053.529053,1305.178589 2053.625000,1303.514893 2053.672607,1300.953979 
	C2077.626953,1299.930664 2101.548828,1299.738403 2125.470459,1299.705200 
	C2149.729004,1299.671631 2173.987549,1299.795044 2199.187744,1299.969971 
z"/>
<path fill="#443427" opacity="1.000000" stroke="none" 
	d="
M1252.601685,2355.391113 
	C1213.514771,2345.146484 1175.756348,2333.543457 1139.330933,2317.820068 
	C1140.362427,2315.243164 1142.032349,2314.887451 1143.556885,2314.520996 
	C1204.111694,2299.968994 1263.595947,2281.443359 1323.820923,2265.729492 
	C1412.520020,2242.585693 1501.254272,2244.708008 1589.218872,2270.440430 
	C1646.130249,2287.089111 1703.497803,2301.820557 1761.483887,2314.177490 
	C1763.743530,2314.658936 1766.112427,2314.870605 1768.147095,2316.689697 
	C1766.358765,2319.902100 1762.835571,2320.296875 1759.986572,2321.434814 
	C1703.494019,2343.996338 1645.135742,2359.899902 1585.199707,2370.111572 
	C1536.815430,2378.355225 1488.099243,2382.607910 1439.003906,2381.490234 
	C1376.147827,2380.059570 1314.333984,2370.905518 1252.601685,2355.391113 
z"/>
</svg>