<?xml version="1.0" standalone="no"?>
<!DOCTYPE svg PUBLIC "-//W3C//DTD SVG 20010904//EN"
 "http://www.w3.org/TR/2001/REC-SVG-20010904/DTD/svg10.dtd">
<svg version="1.0" xmlns="http://www.w3.org/2000/svg"
 width="2888.000000pt" height="2888.000000pt" viewBox="0 0 2888.000000 2888.000000"
 preserveAspectRatio="xMidYMid meet">
<metadata>
Created by potrace 1.14, written by Peter Selinger 2001-2017
</metadata>
<g transform="translate(0.000000,2888.000000) scale(0.100000,-0.100000)"
fill="#000000" stroke="none">
<path d="M40 14430 l0 -14430 14410 0 14410 0 0 14430 0 14430 -14410 0
-14410 0 0 -14430z m14862 9022 c200 -199 318 -325 318 -337 0 -24 -637 -665
-660 -665 -23 0 -660 641 -660 665 0 12 116 135 317 337 249 249 323 318 343
318 19 0 94 -69 342 -318z m-9079 -7686 c14 -260 88 -487 228 -696 204 -304
549 -525 917 -586 154 -25 400 -15 537 21 264 69 476 195 672 398 229 237 353
543 353 873 0 87 1 92 23 98 36 9 2695 7 2701 -3 23 -37 -360 -443 -599 -634
-583 -467 -1338 -807 -2138 -963 -604 -117 -1205 -142 -1812 -73 -510 57 -981
175 -1455 363 -250 100 -612 286 -804 415 -291 195 -276 183 -521 402 -164
147 -433 445 -435 481 0 12 147 14 1261 16 l1066 2 6 -114z m14108 -11 c17
-348 157 -656 408 -898 265 -255 591 -387 956 -387 374 0 687 133 965 410 241
240 360 512 377 864 4 70 11 124 17 128 15 10 2196 10 2196 1 0 -37 -136 -200
-310 -373 -106 -105 -189 -178 -401 -354 -14 -11 -36 -27 -50 -35 -13 -8 -64
-44 -114 -81 -103 -77 -346 -215 -580 -330 -579 -283 -1233 -457 -1965 -522
-88 -8 -286 -12 -505 -12 -342 1 -372 3 -610 33 -311 39 -487 69 -697 120
-764 185 -1396 488 -1958 940 -225 181 -596 577 -574 612 3 5 608 8 1422 7
l1417 -3 6 -120z m-5126 -7795 c617 -23 1069 -96 1512 -245 835 -281 1424
-790 1812 -1565 118 -235 130 -283 112 -438 -44 -370 -184 -700 -422 -997 -89
-111 -264 -284 -387 -383 -715 -573 -1783 -874 -3007 -849 -921 19 -1685 209
-2350 585 -535 302 -941 756 -1109 1241 -72 207 -110 467 -86 583 16 74 153
351 250 505 623 991 1672 1508 3170 1562 118 4 222 8 230 9 8 1 132 -3 275 -8z"/>
<path d="M14100 6369 c-446 -42 -641 -85 -1600 -353 -305 -85 -669 -184 -808
-220 -140 -36 -260 -70 -269 -77 -18 -16 -9 -21 138 -79 719 -288 1652 -498
2483 -559 1075 -80 2312 109 3411 519 194 73 248 97 243 112 -5 14 -7 15 -438
113 -358 82 -787 193 -1213 314 -441 125 -674 175 -1017 217 -157 19 -775 28
-930 13z"/>
</g>
</svg>
